<svg width="148" height="30" viewBox="0 0 148 30" fill="none" xmlns="http://www.w3.org/2000/svg">
<path fill-rule="evenodd" clip-rule="evenodd" d="M4.7143 3.53467V12.633H7.74707V3.53467H4.7143ZM12.8648 3.53467V17.1821H15.8976V3.53467H12.8648ZM21.2049 12.633V3.53467H24.2377V12.633H21.2049ZM14.3812 26.465C8.58797 26.465 3.71444 22.5272 2.29132 17.1821H5.4675C6.78757 20.8275 10.2802 23.4323 14.3812 23.4323C18.4823 23.4323 21.9749 20.8275 23.295 17.1821H26.4712C25.048 22.5272 20.1745 26.465 14.3812 26.465Z" fill="white"/>
<path d="M38.074 21.0619V11.5H34.4453V8.9375H44.9016V11.5H41.2728V21.0619H38.074Z" fill="white"/>
<path d="M49.0721 21.0619V8.9375H57.6881V11.3796H52.1505V13.6841H57.3442V16.109H52.1505V18.6198H57.6881V21.0619H49.0721Z" fill="white"/>
<path d="M71.284 21.0619L70.2005 18.5511H64.8348L63.7513 21.0619H60.5698L66.2278 8.9375H68.7387L74.414 21.0619H71.284ZM65.8495 16.1778H69.1858L67.5176 12.2911L65.8495 16.1778Z" fill="white"/>
<path d="M87.8008 8.9375H90.2429V21.0619H87.4913V14.6988L85.1524 19.0498H83.1231L80.8014 14.8019L80.7842 21.0619H78.0325V8.9375H80.5262L84.1721 15.8338L87.8008 8.9375Z" fill="white"/>
<path d="M98.0759 21.0619V11.5H94.4472V8.9375H104.903V11.5H101.275V21.0619H98.0759Z" fill="white"/>
<path d="M116.73 21.0619L115.647 18.5511H110.281L109.198 21.0619H106.016L111.674 8.9375H114.185L119.86 21.0619H116.73ZM111.296 16.1778H114.632L112.964 12.2911L111.296 16.1778Z" fill="white"/>
<path d="M123.445 21.0619V8.9375H126.609V18.4995H131.768V21.0619H123.445Z" fill="white"/>
<path d="M147.95 21.0619H144.201L139.317 15.5758V21.0619H136.153V8.9375H139.317V14.1484L144.064 8.9375H147.761L142.413 14.6988L147.95 21.0619Z" fill="white"/>
</svg>
