<svg width="120" height="30" viewBox="0 0 120 30" fill="none" xmlns="http://www.w3.org/2000/svg">
<path fill-rule="evenodd" clip-rule="evenodd" d="M7.69947 12.7423C7.69947 15.5504 9.38197 17.9655 11.7939 19.0345C13.2411 19.6759 14.5786 20.9047 14.5786 22.4877L14.5786 24.2075C8.24654 24.2075 3.1134 19.0744 3.1134 12.7423C3.1134 6.4103 8.24654 1.27716 14.5786 1.27716L14.5786 5.86323C10.7794 5.86324 7.69947 8.94312 7.69947 12.7423Z" fill="white"/>
<path fill-rule="evenodd" clip-rule="evenodd" d="M21.4577 17.2572C21.4577 14.4491 19.7752 12.034 17.3633 10.965C15.9161 10.3236 14.5786 9.09478 14.5786 7.51177L14.5786 5.79199C20.9106 5.79199 26.0438 10.9251 26.0438 17.2572C26.0438 23.5892 20.9106 28.7223 14.5786 28.7223L14.5786 24.1363C18.3778 24.1363 21.4577 21.0564 21.4577 17.2572Z" fill="white"/>
<path d="M34.8432 9.59267C34.8432 11.8398 36.1474 13.2644 38.6353 13.8061L40.9628 14.3278C42.1666 14.5886 42.6682 15.1705 42.6682 16.1536C42.6682 17.3775 41.5847 18.1199 39.8793 18.1199C38.234 18.1199 37.2308 17.3775 37.2108 16.1336H34.6426C34.7028 18.7619 36.7493 20.4273 39.8793 20.4273C43.1096 20.4273 45.2364 18.6616 45.2364 15.9329C45.2364 13.7459 44.0125 12.4618 41.5045 11.9201L39.1971 11.4185C37.9732 11.1376 37.4114 10.5557 37.4114 9.51241C37.4114 8.28851 38.4347 7.52607 40.0197 7.52607C41.4644 7.52607 42.3672 8.26844 42.4274 9.53248H44.9956C44.9154 6.88402 43.0294 5.23877 40.0599 5.23877C36.97 5.23877 34.8432 7.02447 34.8432 9.59267Z" fill="white"/>
<path d="M48.2333 20.1664V5.23877H45.8056V20.1664H48.2333Z" fill="white"/>
<path d="M52.3173 20.4273C53.8623 20.4273 55.2066 19.725 55.6279 18.7018L55.8085 20.1664H57.9553V14.1472C57.9553 11.3984 56.3101 9.95382 53.6416 9.95382C50.953 9.95382 49.1873 11.3583 49.1873 13.5052H51.274C51.274 12.4618 52.0766 11.8599 53.5212 11.8599C54.7652 11.8599 55.5677 12.4016 55.5677 13.7459V13.9666L52.5982 14.1873C50.2507 14.3679 48.9265 15.5116 48.9265 17.3374C48.9265 19.2034 50.2106 20.4273 52.3173 20.4273ZM53.1199 18.5814C52.0164 18.5814 51.4145 18.14 51.4145 17.2371C51.4145 16.4345 51.9963 15.9329 53.5212 15.7925L55.5878 15.632V16.1536C55.5878 17.6785 54.6247 18.5814 53.1199 18.5814Z" fill="white"/>
<path d="M61.1941 20.1664L61.3546 18.6215C61.9365 19.7652 63.2005 20.4273 64.6853 20.4273C67.5344 20.4273 69.4003 18.3205 69.4003 15.2708C69.4003 12.1408 67.6748 9.93376 64.8458 9.93376C63.341 9.93376 62.0168 10.5959 61.3747 11.6994V5.23877H58.9269V20.1664H61.1941ZM61.3948 15.1705C61.3948 13.3848 62.4983 12.1408 64.1837 12.1408C65.9092 12.1408 66.9325 13.4048 66.9325 15.1705C66.9325 16.9361 65.9092 18.1801 64.1837 18.1801C62.4983 18.1801 61.3948 16.9562 61.3948 15.1705Z" fill="white"/>
<path d="M69.4347 9.59267C69.4347 11.8398 70.7388 13.2644 73.2268 13.8061L75.5542 14.3278C76.7581 14.5886 77.2597 15.1705 77.2597 16.1536C77.2597 17.3775 76.1762 18.1199 74.4708 18.1199C72.8255 18.1199 71.8223 17.3775 71.8022 16.1336H69.234C69.2942 18.7619 71.3408 20.4273 74.4708 20.4273C77.7011 20.4273 79.8279 18.6616 79.8279 15.9329C79.8279 13.7459 78.604 12.4618 76.096 11.9201L73.7886 11.4185C72.5647 11.1376 72.0029 10.5557 72.0029 9.51241C72.0029 8.28851 73.0262 7.52607 74.6112 7.52607C76.0558 7.52607 76.9587 8.26844 77.0189 9.53248H79.5871C79.5068 6.88402 77.6208 5.23877 74.6513 5.23877C71.5615 5.23877 69.4347 7.02447 69.4347 9.59267Z" fill="white"/>
<path d="M80.3569 24.7611H82.8047V18.8422C83.4267 19.8454 84.7108 20.4273 86.1956 20.4273C89.145 20.4273 90.8304 18.1801 90.8304 15.0902C90.8304 11.9803 88.9845 9.95382 86.1956 9.95382C84.6908 9.95382 83.3866 10.6159 82.7847 11.7596L82.6242 10.2548H80.3569V24.7611ZM82.8248 15.2106C82.8248 13.4249 83.9283 12.1809 85.6137 12.1809C87.3392 12.1809 88.3625 13.445 88.3625 15.2106C88.3625 16.9762 87.3392 18.2202 85.6137 18.2202C83.9283 18.2202 82.8248 16.9963 82.8248 15.2106Z" fill="white"/>
<path d="M94.2957 20.4273C95.8406 20.4273 97.1849 19.725 97.6062 18.7018L97.7868 20.1664H99.9337V14.1472C99.9337 11.3984 98.2884 9.95382 95.6199 9.95382C92.9313 9.95382 91.1657 11.3583 91.1657 13.5052H93.2523C93.2523 12.4618 94.0549 11.8599 95.4995 11.8599C96.7435 11.8599 97.546 12.4016 97.546 13.7459V13.9666L94.5766 14.1873C92.2291 14.3679 90.9048 15.5116 90.9048 17.3374C90.9048 19.2034 92.1889 20.4273 94.2957 20.4273ZM95.0982 18.5814C93.9947 18.5814 93.3928 18.14 93.3928 17.2371C93.3928 16.4345 93.9746 15.9329 95.4995 15.7925L97.5661 15.632V16.1536C97.5661 17.6785 96.603 18.5814 95.0982 18.5814Z" fill="white"/>
<path d="M100.323 15.1905C100.323 18.3406 102.29 20.4273 105.299 20.4273C107.888 20.4273 109.814 18.8422 110.115 16.5348H107.647C107.386 17.6183 106.523 18.2202 105.299 18.2202C103.734 18.2202 102.771 17.0565 102.771 15.1905C102.771 13.3246 103.815 12.1408 105.38 12.1408C106.543 12.1408 107.366 12.7227 107.647 13.8463H110.095C109.834 11.4586 107.988 9.95382 105.279 9.95382C102.35 9.95382 100.323 12.1207 100.323 15.1905Z" fill="white"/>
<path d="M114.938 20.4273C117.526 20.4273 119.332 19.1231 119.753 16.9562H117.486C117.205 17.8992 116.322 18.4209 114.978 18.4209C113.353 18.4209 112.43 17.538 112.249 15.7925L119.713 15.7724V15.03C119.713 11.9402 117.827 9.95382 114.857 9.95382C111.948 9.95382 109.922 12.1007 109.922 15.2106C109.922 18.2804 111.988 20.4273 114.938 20.4273ZM114.877 11.9602C116.342 11.9602 117.285 12.8631 117.285 14.2275H112.309C112.55 12.7427 113.433 11.9602 114.877 11.9602Z" fill="white"/>
</svg>
